<?xml version="1.0" standalone="no"?>
<!DOCTYPE svg PUBLIC "-//W3C//DTD SVG 20010904//EN"
 "http://www.w3.org/TR/2001/REC-SVG-20010904/DTD/svg10.dtd">
<svg version="1.0" xmlns="http://www.w3.org/2000/svg"
 width="803.000000pt" height="311.000000pt" viewBox="0 0 803.000000 311.000000"
 preserveAspectRatio="xMidYMid meet">

<g transform="translate(0.000000,311.000000) scale(0.100000,-0.100000)"
fill="#000000" stroke="none">
<path d="M924 2641 c-23 -10 -52 -34 -65 -52 l-24 -34 -3 -895 c-2 -626 1
-903 9 -921 15 -37 67 -84 108 -98 24 -8 307 -11 1005 -11 923 0 973 1 1011
19 46 21 79 54 94 94 8 19 11 309 11 910 l0 882 -23 40 c-14 26 -37 48 -67 63
l-44 22 -986 0 c-939 0 -987 -1 -1026 -19z m1034 -408 c72 -28 158 -79 181
-106 9 -12 -8 -7 -54 14 -159 72 -293 85 -335 32 -22 -28 -24 -41 -11 -62 8
-12 20 -11 83 7 140 42 243 37 300 -15 17 -15 20 -15 52 16 69 67 144 71 205
12 64 -61 85 -132 85 -287 l1 -132 32 -11 c17 -7 45 -28 62 -47 72 -82 19
-209 -133 -313 -52 -36 -156 -85 -156 -73 0 4 22 21 48 39 86 58 159 132 186
185 32 64 32 82 1 113 -38 39 -49 32 -63 -41 -24 -127 -89 -234 -160 -263 -28
-12 -29 -15 -21 -44 58 -204 -138 -273 -381 -134 -78 44 -106 65 -98 73 3 3
24 -4 46 -15 116 -59 260 -86 326 -61 31 11 50 45 42 75 l-6 23 -53 -18 c-29
-10 -84 -24 -121 -31 -80 -14 -158 -1 -201 33 l-26 21 -33 -32 c-144 -139
-298 6 -295 279 1 113 14 147 23 60 16 -149 41 -229 90 -288 31 -36 77 -43
106 -17 14 13 9 22 -60 93 -92 94 -120 147 -120 223 l0 55 -46 12 c-28 8 -60
26 -80 46 -29 29 -34 41 -34 80 0 104 93 209 258 291 l66 32 -2 54 c-3 64 11
95 57 126 50 34 150 32 239 -4z"/>
<path d="M1885 2094 c-16 -2 -54 -9 -82 -15 l-53 -10 15 -29 c17 -34 101 -121
161 -167 l40 -32 41 37 c48 44 85 113 81 150 -5 45 -107 78 -203 66z"/>
<path d="M2250 2085 c-10 -12 0 -26 57 -82 85 -84 123 -155 123 -230 0 -29 5
-53 10 -53 12 0 12 26 0 115 -23 158 -81 265 -145 265 -18 0 -38 -7 -45 -15z"/>
<path d="M1610 2004 c-133 -88 -221 -206 -203 -274 7 -26 62 -57 67 -38 2 7
11 44 20 82 31 123 89 215 151 238 19 6 35 16 35 20 0 14 -14 9 -70 -28z"/>
<path d="M2196 2018 c-31 -49 -75 -231 -63 -261 7 -19 76 -37 144 -37 99 0
117 45 64 155 -29 61 -106 165 -122 165 -5 0 -15 -10 -23 -22z"/>
<path d="M1665 1951 c-40 -17 -77 -63 -115 -143 -60 -128 -60 -128 -7 -128 89
0 257 58 257 88 0 43 -32 120 -64 155 -37 39 -40 40 -71 28z"/>
<path d="M1933 1703 c-34 -23 -32 -78 4 -97 25 -13 31 -12 55 2 41 24 39 76
-2 97 -34 18 -29 18 -57 -2z"/>
<path d="M2309 1626 c-31 -6 -84 -23 -118 -36 l-63 -25 7 -49 c10 -81 62 -156
107 -156 55 0 125 89 168 216 11 31 20 59 20 61 0 7 -67 1 -121 -11z"/>
<path d="M1607 1593 c-77 -12 -54 -138 48 -263 25 -30 50 -57 55 -58 24 -8 89
189 90 270 0 24 -6 29 -52 43 -50 15 -83 16 -141 8z"/>
<path d="M1912 1420 c-83 -81 -94 -152 -29 -183 44 -22 175 -25 250 -7 l46 12
-15 30 c-22 42 -79 103 -145 154 l-57 43 -50 -49z"/>
<path d="M3527 2324 c-4 -4 -7 -180 -7 -391 l0 -384 58 3 57 3 3 148 c1 81 6
147 11 147 8 0 119 -218 141 -275 9 -23 14 -25 80 -25 86 0 87 -17 -15 192
l-73 149 38 35 c61 56 83 110 78 199 -3 62 -8 80 -33 116 -55 77 -71 84 -208
87 -67 2 -125 0 -130 -4z m215 -141 c10 -9 23 -33 30 -54 9 -32 8 -46 -7 -84
-20 -53 -51 -78 -92 -73 l-28 3 -3 104 c-3 118 4 136 52 127 16 -4 38 -14 48
-23z"/>
<path d="M4972 2322 c-11 -7 -13 -69 -10 -308 3 -299 3 -300 29 -349 37 -73
97 -108 187 -108 107 0 179 47 202 132 5 20 12 167 16 327 7 330 10 318 -71
306 l-50 -7 -5 -275 c-5 -250 -7 -278 -24 -307 -40 -66 -113 -61 -141 10 -14
35 -16 79 -14 312 l3 270 -55 3 c-30 1 -60 -2 -67 -6z"/>
<path d="M5517 2324 c-4 -4 -7 -178 -7 -386 l0 -379 158 3 157 3 0 55 0 55
-90 5 -90 5 -5 320 -5 320 -55 3 c-31 2 -59 0 -63 -4z"/>
<path d="M6325 2311 c-75 -35 -115 -102 -115 -194 0 -70 32 -120 139 -217 85
-77 109 -121 95 -174 -16 -64 -95 -84 -169 -43 l-46 26 -15 -34 c-17 -42 -18
-79 -1 -93 7 -6 43 -16 79 -23 162 -30 278 51 278 193 0 83 -35 143 -141 239
-60 56 -92 92 -98 114 -24 89 39 141 121 99 34 -18 40 -14 57 35 19 57 15 69
-26 80 -56 16 -113 13 -158 -8z"/>
<path d="M4378 2178 c-70 -135 -308 -617 -308 -625 0 -1 174 -3 386 -3 212 0
384 3 382 8 -23 50 -334 671 -356 710 l-29 54 -75 -144z m187 -208 c58 -115
105 -214 105 -220 0 -6 -54 -10 -145 -10 -80 0 -145 2 -145 5 0 4 7 19 15 35
15 29 18 30 90 30 41 0 75 3 74 8 0 4 -24 54 -53 112 l-54 105 -86 -173 c-47
-94 -86 -174 -86 -177 0 -3 97 -5 215 -5 l214 0 16 -30 c8 -16 15 -31 15 -35
0 -3 -128 -5 -285 -5 -182 0 -285 4 -285 10 0 16 274 560 282 560 5 0 55 -94
113 -210z"/>
<path d="M3644 1323 c-38 -7 -100 -69 -112 -111 -28 -94 -3 -198 58 -242 37
-27 148 -39 193 -21 l28 11 -3 87 -3 88 -35 0 -35 0 -3 -67 -3 -68 -33 0 c-18
0 -45 9 -59 21 -54 41 -59 164 -10 214 26 25 34 27 108 29 34 1 41 5 43 23 5
35 -56 51 -134 36z"/>
<path d="M3963 1316 c-71 -32 -107 -138 -84 -247 23 -109 134 -162 231 -110
52 27 73 71 77 160 4 65 1 82 -19 120 -13 25 -34 53 -48 63 -34 25 -116 32
-157 14z m101 -60 c30 -13 36 -20 46 -71 21 -101 -14 -185 -76 -185 -60 0 -84
39 -84 137 0 83 21 120 78 132 1 1 18 -5 36 -13z"/>
<path d="M4345 1312 c-59 -28 -88 -86 -89 -176 -1 -130 62 -201 172 -193 99 7
146 67 147 187 0 123 -43 183 -141 195 -37 4 -59 1 -89 -13z m130 -73 c17 -17
20 -33 20 -105 0 -82 -1 -87 -29 -110 -38 -33 -81 -29 -110 9 -16 22 -21 43
-21 96 0 38 6 79 14 93 26 50 85 58 126 17z"/>
<path d="M4668 1323 c-16 -4 -18 -22 -18 -195 l0 -190 88 4 c109 4 156 26 189
88 44 84 21 213 -48 263 -42 31 -150 46 -211 30z m125 -64 c69 -19 99 -117 63
-203 -15 -36 -64 -60 -108 -54 -22 3 -23 7 -26 122 -1 66 0 126 2 133 6 16 19
16 69 2z"/>
<path d="M5495 1316 c-67 -30 -95 -86 -95 -191 0 -115 61 -185 161 -185 96 0
153 72 154 195 0 92 -24 141 -85 173 -50 25 -91 27 -135 8z m89 -56 c41 -15
59 -62 54 -143 -3 -61 -7 -72 -32 -94 -63 -54 -126 -9 -134 96 -5 71 17 125
56 140 15 5 28 10 29 10 1 1 13 -3 27 -9z"/>
<path d="M5875 1316 c-120 -53 -129 -278 -15 -354 29 -20 45 -23 93 -20 49 4
62 9 92 38 39 38 55 82 55 154 0 103 -41 169 -116 187 -52 12 -73 11 -109 -5z
m122 -68 c6 -5 17 -34 23 -64 21 -100 -14 -184 -76 -184 -36 0 -54 11 -69 41
-18 34 -19 145 -2 179 23 45 86 60 124 28z"/>
<path d="M6193 1324 c-10 -4 -13 -53 -13 -196 l0 -190 88 4 c148 7 195 49 201
179 3 70 0 83 -23 123 -15 27 -39 50 -61 61 -36 17 -169 30 -192 19z m128 -64
c52 0 93 -104 70 -179 -15 -51 -41 -72 -96 -78 l-45 -6 0 130 c0 71 3 133 7
137 4 4 17 5 28 2 11 -3 27 -6 36 -6z"/>
<path d="M5140 1129 l0 -190 33 3 32 3 3 83 3 82 55 0 c54 0 55 0 52 28 -3 25
-7 27 -55 30 l-53 3 0 45 0 44 70 0 70 0 0 30 0 30 -105 0 -105 0 0 -191z"/>
</g>
</svg>
