<?xml version="1.0" standalone="no"?>
<!DOCTYPE svg PUBLIC "-//W3C//DTD SVG 20010904//EN"
 "http://www.w3.org/TR/2001/REC-SVG-20010904/DTD/svg10.dtd">
<svg version="1.0" xmlns="http://www.w3.org/2000/svg"
 width="487.000000pt" height="800.000000pt" viewBox="0 0 487.000000 800.000000"
 preserveAspectRatio="xMidYMid meet">

<g transform="translate(0.000000,800.000000) scale(0.100000,-0.100000)"
fill="#000000" stroke="none">
<path d="M2265 7993 c-84 -6 -265 -33 -360 -54 -612 -140 -1148 -509 -1495
-1032 -249 -374 -385 -793 -406 -1252 -28 -611 255 -1483 901 -2775 203 -406
379 -737 960 -1800 227 -415 449 -826 495 -912 l83 -157 62 97 c293 461 730
1203 997 1692 733 1344 1175 2422 1334 3250 26 135 28 167 32 463 4 355 -3
426 -63 662 -122 475 -394 910 -770 1233 -488 419 -1121 628 -1770 585z"/>
</g>
</svg>
